<svg width="14" height="18" viewBox="0 0 14 18" fill="none" xmlns="http://www.w3.org/2000/svg">
<path d="M6.99999 8.80318C9.00128 8.80318 10.6238 6.83254 10.6238 4.40162C10.6238 1.97064 10.0911 0 6.99999 0C3.90887 0 3.37607 1.97064 3.37607 4.40162C3.37607 6.83254 4.99859 8.80318 6.99999 8.80318Z" fill="#DEDEDE"/>
<path d="M0.155316 15.5239C0.154698 15.3757 0.154079 15.4822 0.155316 15.5239V15.5239Z" fill="#DEDEDE"/>
<path d="M13.8444 15.6397C13.8463 15.5991 13.8451 15.3581 13.8444 15.6397V15.6397Z" fill="#DEDEDE"/>
<path d="M13.8367 15.3462C13.7696 11.1114 13.2165 9.90475 8.9843 9.14093C8.9843 9.14093 8.38855 9.90007 6.99998 9.90007C5.61141 9.90007 5.01556 9.14093 5.01556 9.14093C0.829532 9.89642 0.242835 11.0852 0.165693 15.2086C0.159367 15.5453 0.156435 15.563 0.155304 15.5239C0.155561 15.5971 0.15587 15.7326 0.15587 15.9688C0.15587 15.9688 1.16346 18 6.99998 18C12.8364 18 13.8441 15.9688 13.8441 15.9688C13.8441 15.817 13.8442 15.7115 13.8444 15.6397C13.8432 15.6639 13.841 15.617 13.8367 15.3462Z" fill="#DEDEDE"/>
</svg>
